<svg width="273" height="205" viewBox="0 0 273 205" fill="none" xmlns="http://www.w3.org/2000/svg">
<path fill-rule="evenodd" clip-rule="evenodd" d="M43.8011 13.4131C33.86 13.4131 28.5011 19.5223 28.5011 29.4634C28.5011 31.1427 28.7311 32.7683 29.1613 34.3104C30.4986 39.1047 33.2864 43.6981 36.074 48.2913C39.9378 54.6576 43.8011 61.0232 43.8011 67.9221V133.919C43.8011 140.944 39.789 147.433 35.7768 153.923C33.752 157.198 31.7273 160.472 30.2182 163.816C28.5531 166.544 27.5938 169.75 27.5938 173.18C27.5938 183.121 35.6526 191.18 45.5938 191.18C45.6468 191.18 45.6998 191.18 45.7527 191.18C45.7997 191.18 45.8467 191.18 45.8937 191.18C55.8348 191.18 64.2011 180.813 64.2011 174.513C64.2011 169.073 65.29 164.9 70.0511 161.158L165.852 81.6221C169.965 78.3896 175.923 77.6287 181.201 78.6631C192.151 81.3631 200.965 75.7137 203.401 65.1631C205.637 55.4767 201.112 47.4379 191.426 45.2016C189.841 44.8357 188.256 44.6914 186.705 44.7483C186.597 44.749 186.489 44.7506 186.382 44.7532C180.853 44.8863 175.122 46.9252 169.391 48.9644C161.865 51.6418 154.338 54.3198 147.263 52.6863L87.5413 38.8985C80.3532 37.239 74.673 31.3589 68.9948 25.481C62.9524 19.226 53.2095 13.4131 43.8011 13.4131ZM165.301 66.9631C163.501 59.9131 154.948 57.5394 148.102 55.959L83.7973 41.113C76.88 39.5161 64.5997 41.5373 58.4612 45.6652C52.3377 49.7831 46.8011 64.2407 46.8011 71.072L45.8937 133.919C45.8937 144.963 51.0011 151.482 53.8511 153.923C56.7011 156.363 66.1511 161.158 70.0511 157.863L160.878 81.7163C164.282 79.0406 167.101 74.0131 165.301 66.9631Z" fill="black" fill-opacity="0.69"/>
<path fill-rule="evenodd" clip-rule="evenodd" d="M133.642 6.2173C131.11 0.816887 124.679 -1.50812 119.278 1.02425C116.469 2.34172 114.673 5.01226 112.579 7.20688C109.562 10.369 106.506 13.5713 102.51 14.3975L71.9021 20.7265C66.9108 21.7586 62.0472 19.1612 57.7669 16.1787C56.6188 15.163 55.3638 14.315 54.0369 13.639C52.579 12.8259 50.9825 12.2035 49.273 11.8125C39.5821 9.59619 29.9294 15.6555 27.713 25.3464C26.4718 30.7737 27.8262 36.1891 30.9604 40.2929C33.1193 45.6396 34.7422 51.5398 32.2245 56.4625L18.7217 82.8635C16.9243 86.3778 13.2144 88.4046 9.53926 90.4124C7.75377 91.3879 5.97648 92.3588 4.43065 93.4937C4.32459 93.5716 4.21953 93.6517 4.1155 93.734C1.73473 95.6176 0.360553 98.302 0.0730042 101.101C0.0247879 101.515 0 101.936 0 102.363C0 105.822 1.67843 108.823 4.17086 110.775C5.73547 112 7.55978 113.063 9.39538 114.133C13.1368 116.313 16.9254 118.521 18.6573 122.182L31.3668 149.05C33.8879 154.38 31.6498 160.683 29.3362 166.106C28.4117 168.273 27.9 170.658 27.9 173.163C27.9 183.104 35.9589 191.163 45.9 191.163C49.6172 191.163 53.0712 190.036 55.9392 188.106L55.9496 188.099C60.7199 184.888 66.3196 181.632 71.9049 182.994L103.247 190.635C107.111 191.577 109.984 194.744 112.823 197.874C113.885 199.045 114.943 200.21 116.046 201.252C116.818 202.063 117.714 202.754 118.703 203.293C120.247 204.163 122.019 204.663 123.9 204.663C129.865 204.663 134.7 199.828 134.7 193.863C134.7 189.841 132.501 186.332 129.24 184.474C127.946 183.585 126.533 182.767 125.114 181.945L125.112 181.944C121.279 179.724 117.396 177.475 115.655 173.738L93.9069 127.037C89.6819 117.965 98.7457 112.431 99.3536 103.914C100.706 94.0645 89.4663 86.6927 94.4528 76.5368L116.264 32.1131C118.599 27.3585 122.139 22.9265 127.35 22.2633C132.561 21.6001 136.672 23.2847 139.41 25.6072L163.243 45.8281C167.694 49.604 168.291 56.1785 168.453 62.0128C168.519 64.4115 169.069 66.8361 170.153 69.1474C174.374 78.1481 185.091 82.0231 194.092 77.8025C203.093 73.5819 206.968 62.8639 202.747 53.8632C199.079 46.0411 190.59 42.5634 182.908 43.9923C176.374 45.2079 168.561 46.4094 163.493 42.1089L140.882 22.9233C137.872 20.3695 136.748 16.2943 135.634 12.2572C135.073 10.2227 134.541 8.13535 133.642 6.2173ZM103.719 17.2098C107.229 16.4842 112.309 16.1372 114.286 19.2002C116.264 22.2633 115.306 27.2572 113.628 30.6733L91.1249 76.5009C88.9634 80.9027 84.229 83.1459 79.4102 84.664C75.9387 85.0588 72.7769 86.4365 70.2009 88.5062C63.9477 93.1498 60.5937 102.062 51.4082 101.823L32.5842 101.332C28.2953 101.221 22.35 98.1633 20.9242 95.6683C19.4985 93.1734 19.8659 87.2122 21.6712 83.6822L35.9021 55.8543C38.5595 50.6579 44.8229 48.572 50.4654 47.0798C52.7853 46.4663 55.0197 45.3761 57.0217 43.7922C60.5074 41.0344 62.3588 36.3458 63.5044 33.2045C64.65 30.0633 69.6667 24.2492 74.6791 23.2131L103.719 17.2098ZM69.1222 116.553C75.6665 123.064 88.0697 121.589 92.3346 130.749L113.393 175.977C114.799 178.998 115.655 183.063 114.021 185.922C112.387 188.78 106.864 188.429 103.385 187.581L75.2022 180.71C69.1691 179.239 65.6055 173.02 62.8787 167.266C62.0787 165.043 60.8432 163.045 59.2957 161.343C56.5157 158.165 52.6574 155.916 48.2463 155.32C42.2896 153.748 35.838 151.487 33.273 146.064L21.2417 120.63C19.6672 117.301 19.1393 113.04 20.7446 109.577C22.35 106.113 28.623 104.23 33.0065 104.344L53.4262 104.875C61.3681 105.081 64.172 112.244 69.1222 116.553Z" fill="black"/>
<path d="M247.028 120.659H254.923V151.363H244.177L223.255 128.335V151.363H215.359V120.659H226.062L247.028 143.731V120.659Z" fill="black"/>
<path d="M204.744 151.363L201.454 144.827H183.076L179.786 151.363H171.102L186.936 120.659H197.594L213.472 151.363H204.744ZM186.015 138.95H198.515L192.287 126.493L186.015 138.95Z" fill="black"/>
<path d="M134.949 135.967C134.949 125.791 140.739 120.221 154.249 120.221C166.486 120.221 172.627 124.87 173.416 133.73H165.389C164.644 128.774 160.828 126.844 154.249 126.844C146.222 126.844 142.844 129.695 142.844 135.967C142.844 142.283 146.266 145.178 154.249 145.178C160.784 145.178 164.644 143.204 165.389 138.204H173.416C172.627 147.108 166.486 151.801 154.249 151.801C140.739 151.801 134.949 146.187 134.949 135.967Z" fill="black"/>
<circle cx="267.451" cy="146.013" r="4.65" fill="black"/>
</svg>
